<svg width="400" height="105" viewBox="0 0 400 105" fill="none" xmlns="http://www.w3.org/2000/svg">
<mask id="mask0_7_19" style="mask-type:alpha" maskUnits="userSpaceOnUse" x="0" y="0" width="400" height="105">
<g clip-path="url(#clip0_7_19)">
<path d="M48.9 1.09998C50.9 -0.400024 53.6 -0.400024 55.6 1.09998C60.8 4.39998 65.6 7.79997 70.5 11.5C70.5 11.5 71.6 12.2 72 10.8C71.8 8.89998 71.9 6.99998 72.4 5.19998C72.8 4.09998 73.8 3.39998 75 3.29998C75 3.29998 80.6 3.69997 84.3 3.99997C85.9 4.29997 87.1 5.69998 87.3 7.29998C87.3 7.29998 89.5 22.9 90.3 28.5C91.1 31.4 92.6 34.1 94.8 36.3C98.2 40.8 101.3 45.6 104.1 50.4C104.1 50.4 106 54.5 101.9 54.9C101.9 54.9 94.1 55.6 93.3 56C92.2 56.1 91.4 57.1 91.4 58.2C91.4 58.2 91 85.4 89.2 98.8C89.2 98.8 88.8 104 85.9 104C85.9 104 78.1 103.6 76.2 103.6C76.2 103.6 75.5 103.6 75.5 102.5C75.5 102.5 79.6 60.1 77 38.5C77 37 76.1 35.7 74.8 35.2C74.8 35.2 72.9 34.5 71.1 37.1C63.1 48.3 58.6 61.7 58.5 75.4C58.3 78.3 58.5 81.2 59.2 84C59.2 84 59.9 85.1 63.3 85.5L67.4 86.2C67.4 86.2 68.1 86.2 68.1 87.3C68.1 87.3 67 99.9 67 102.2C67.1 102.7 66.9 103.3 66.6 103.7C66.2 104 65.6 104.1 65.1 104.1H44.6C44.2 104.1 43.8 104 43.5 103.7C43.1 103 42.4 87.7 42.4 85.5C42.4 85.1 42.8 84.8 43.1 84.4C46 82.6 47.9 79.6 48.3 76.2C48.6 73.9 48.6 71.5 48.3 69.1C48.3 69.1 49 45.3 49 41.2C49 41.2 49.4 40.1 47.5 39.7C46.8 39.4 46 39.8 45.7 40.6C45.7 40.7 45.7 40.8 45.6 40.8C45.6 40.8 44.5 56.8 44.5 62.8C44.5 62.8 44.9 66.9 42.3 66.9C42.3 66.9 39.7 67.3 39.3 63.9C39.3 63.9 39.7 48.6 40 40.8C39.9 40 39.3 39.4 38.5 39.3C37.8 38.9 36.6 39.7 36.6 40.8C36.6 40.8 35.5 55.7 35.5 63.1C35.5 63.1 35.9 66.8 32.9 66.8C32.9 66.8 30.3 67.2 30.3 63.8C30.3 63.8 31 42.6 31 41.1C31.1 40.2 30.4 39.4 29.5 39.2H29.1C28.4 39.2 27.2 39.6 27.2 40.7V41.1C27.2 41.1 26 66.4 26 73.8C26 78.1 28.1 82.1 31.6 84.6C32 84.8 32.3 85.2 32.3 85.7C32.3 85.7 33 99.1 33.4 103.6C33.4 103.6 33.8 104.7 32.7 104.7L18.6 104C18.6 104 16.4 104.4 15.6 101.4C13.9 87.2 13 72.9 13 58.6C13.1 57.5 12.3 56.5 11.1 56.4C11.1 56.4 4 55.7 2.2 55.3C0.600004 54.9 -0.399993 53.2 6.72787e-06 51.6C6.72787e-06 51.2 0.400016 51.2 0.400016 50.9C12.6 30.8 29.2 13.8 48.9 1.09998Z" fill="#FF8000"/>
<path d="M337.3 54.5999C335.8 52.9999 334.1 51.7999 332.1 50.8999C329.8 49.9999 327.5 49.4999 325 49.3999C322.3 49.3999 319.7 49.8999 317.2 50.8999C314.9 51.7999 312.8 52.9999 310.9 54.5999C309 56.1999 307.6 58.1999 306.8 60.5999C304.6 66.1999 304.6 72.4999 306.8 78.0999C307.9 80.1999 309.3 82.1999 310.9 84.0999C312.7 85.7999 314.9 87.0999 317.2 87.7999C319.7 88.6999 322.4 89.1999 325 89.2999C327.9 89.2999 330.9 88.5999 333.6 87.3999C335.7 86.4999 337.6 85.2999 339.2 83.6999C339.6 82.9999 339.6 82.1999 339.2 81.4999L334.4 77.7999L334 77.3999C333.3 76.9999 332.5 76.9999 332.1 77.7999L329.9 79.9999C328.5 80.6999 327 81.0999 325.4 81.0999C323.4 80.9999 321.5 80.2999 319.8 79.1999C318.3 77.3999 317.3 75.1999 316.8 72.8999C316.8 72.4999 317.1 72.1999 317.5 72.1999H340.9C341.8 72.0999 342.5 71.2999 342.4 70.2999V68.3999C342.4 65.7999 342 63.0999 341.3 60.5999C340.2 58.4999 338.8 56.4999 337.3 54.5999ZM329.8 63.8999H317.2C316.8 63.8999 316.4 63.5999 316.4 63.1999C316.4 62.4999 316.8 62.0999 316.8 61.2999C317.5 59.5999 318.8 58.2999 320.5 57.5999C321.6 57.1999 322.7 56.8999 323.8 56.8999C325.6 56.8999 327.3 57.5999 328.6 58.7999C329.7 59.8999 330.4 61.2999 330.5 62.8999C330.6 63.5999 330.2 63.8999 329.8 63.8999Z" fill="#FF8000"/>
<path d="M226.4 67.7C225 66.9 223.5 66.3 221.9 65.8L217.4 64.7L214.1 63.6C213.3 63.3 212.8 62.6 212.6 61.7C212.5 60.8 212.9 59.9 213.7 59.5C214.5 59.1 215.4 58.8 216.3 58.8C218.2 58.9 220 59.5 221.5 60.7C222.2 61.1 223 61.1 223.7 60.7L228.2 55.9C228.6 55.2 228.6 54.4 228.2 53.7C226.7 52.5 225.1 51.5 223.4 50.7C221.1 49.9 218.7 49.6 216.3 49.6C214.4 49.7 212.6 49.9 210.7 50.3C208.9 50.7 207.3 51.4 205.9 52.5C204.5 53.5 203.4 54.7 202.6 56.2C201.7 57.9 201.3 59.9 201.5 61.8C201.5 63.8 202 65.7 203 67.4C203.7 68.9 204.9 70 206.3 70.7C207.7 71.5 209.2 72.1 210.8 72.6L215.3 73.7L218.6 74.8C219.8 75.3 220.4 76.7 219.9 78C219.7 78.6 219.2 79.1 218.6 79.3C217.6 79.8 216.4 79.9 215.3 79.7C212.7 79.8 210.3 78.7 208.6 76.7C207.9 76.3 207.1 76.3 206.4 76.7L201.9 82.7C201.5 83.4 201.5 84.6 202.3 84.9C203.9 86.1 205.7 87.1 207.5 87.9C209.9 88.6 212.4 89 214.9 89C216.8 89.1 218.6 88.9 220.5 88.6C222.3 88.2 224.1 87.6 225.7 86.7C227.3 85.9 228.6 84.6 229.4 83C230.5 81.2 231 79.1 230.9 77C230.9 75 230.4 73.1 229.4 71.4C229 69.7 227.9 68.3 226.4 67.7Z" fill="#FF8000"/>
<path d="M156.8 42.4C154.9 41.3 152.9 40.4 150.8 39.8C148.6 39.4 146.4 39.1 144.1 39.1H129.3C128.5 39.2 127.9 39.8 127.8 40.6V86.7C127.9 87.5 128.5 88.1 129.3 88.2H137.1C137.9 88.1 138.5 87.5 138.6 86.7V69.9C138.6 69.5 138.9 69.2 139.3 69.2H144.5C146.7 69.1 149 68.9 151.2 68.5C153.4 68.2 155.4 67.3 157.2 65.9C158.8 64.6 160.1 63 160.9 61.1C161.9 58.9 162.4 56.5 162.4 54C162.5 51.6 162 49.1 160.9 46.9C159.8 45.1 158.5 43.6 156.8 42.4ZM150.5 56.9C150.1 57.7 149.4 58.3 148.6 58.8C147.9 59.2 147.5 59.5 146.7 59.5C146 59.5 144.8 59.9 143.7 59.9H139.2C138.8 59.9 138.5 59.6 138.5 59.2V49.2C138.5 48.8 138.8 48.5 139.2 48.5H145.1C146 48.6 146.9 48.8 147.7 49.2C148.5 49.7 149.3 50.3 149.9 51.1C150.5 52 150.8 53 150.6 54.1C151.1 54.9 151 56 150.5 56.9Z" fill="#FF8000"/>
<path d="M263.2 79.5999H246.5C246.3 79.5999 246.1 79.3999 246.1 79.1999V78.7999H246.5L262.5 63.4999L263.2 62.7999C263.9 62.0999 264.3 61.1999 264.3 60.1999V52.7999C264.3 52.0999 263.6 50.8999 262.8 50.8999H235.3C234.5 50.9999 233.8 51.5999 233.4 52.3999V57.9999C233.5 58.8999 234.3 59.5999 235.3 59.4999H250.6C251 59.4999 251 59.8999 251 60.1999V60.5999L236.9 74.3999L235 76.2999L234.6 76.6999C233.9 77.0999 233.9 77.7999 233.5 78.8999V87.0999C233.6 87.8999 234.2 88.4999 235 88.5999H263.6C264.6 88.4999 265.4 87.6999 265.5 86.6999V81.0999C265.1 80.1999 264.2 79.5999 263.2 79.5999Z" fill="#FF8000"/>
<path d="M202.6 51.6999C202.2 50.9999 201.9 50.5999 201.1 50.5999H194.4C193.2 50.6999 192 51.3999 191.4 52.4999V52.8999V53.9999L185.4 73.2999V73.6999C185.4 74.0999 185 74.3999 184.7 74.0999C184.4 73.7999 184 74.0999 184 73.6999L176.9 53.9999V53.5999L176.5 52.0999C176 50.8999 174.8 50.0999 173.5 50.1999H166.1C165.5 50.1999 165 50.6999 165 51.2999V51.6999V52.3999L179.1 87V89.2L178.4 89.8999C178.1 90.7999 177.7 91.7 177.3 92.5C176.9 93.2 176.6 93.5999 176.2 94.3999C174.9 95.5999 173.1 96.0999 171.4 95.8999H166.6C165.8 95.9999 165.2 96.5999 165.1 97.3999V103.4C165.2 104.2 165.8 104.8 166.6 104.9H172.9C175 105 177.2 104.8 179.2 104.2C180.7 103.8 182.2 103.1 183.3 102C184.4 100.9 185.3 99.6999 185.9 98.2999C186.6 96.7999 187.4 95.3 188.1 93.5L203.4 52.5999C202.6 52.3999 202.6 51.9999 202.6 51.6999Z" fill="#FF8000"/>
<path d="M299.3 54.6C298.3 53 296.9 51.7 295.2 50.9C293.1 50 290.8 49.6 288.5 49.8C287.2 49.7 286 49.9 284.8 50.2C283.7 50.5 282.7 51 281.8 51.7C281 52.2 280.2 52.8 279.6 53.6C279.6 54 279.2 54 278.9 54.3H278.5C278.1 54.3 278.1 53.9 277.8 53.9V52.4C277.8 51.6 277.2 50.9 276.4 50.9C276.3 50.9 276.1 50.9 276 50.9H268.9C268.2 50.9 267 51.6 267 52.4V87C267.1 87.9 267.9 88.6 268.9 88.5H276.7C277.5 88.4 278.2 87.8 278.6 87V65.4C278.7 64.4 278.9 63.4 279.3 62.4C279.8 61.6 280.4 60.8 281.2 60.2C282.3 59.8 283.4 59.5 284.5 59.5C286.6 59.4 288.5 60.6 289.3 62.5C289.7 63.4 290 64.4 290 65.5V87.1C290.1 88 290.9 88.7 291.9 88.6H299.7C300.5 88.5 301.2 87.9 301.6 87.1V66.9C301.7 64.7 301.5 62.4 301.2 60.2C301 58.2 300.4 56.3 299.3 54.6Z" fill="#FF8000"/>
<path d="M398.2 35.2999H395.6C394.6 35.3999 393.8 36.1999 393.7 37.1999V87.0999C393.7 87.7999 394.4 88.5999 395.6 88.9999H398.2C399.2 88.8999 400 88.0999 400.1 87.0999V37.1999C399.8 35.9999 399 35.2999 398.2 35.2999Z" fill="#FF8000"/>
<path d="M346.6 80.7C345.5 80.7 344.4 81.0999 343.6 81.7999C342.1 83.4999 342.1 86.0999 343.6 87.7999C345.2 89.3999 347.8 89.4999 349.5 87.8999C349.5 87.8999 349.5 87.8999 349.6 87.7999C351.1 86.0999 351.1 83.4999 349.6 81.7999C348.7 81.0999 347.7 80.7 346.6 80.7Z" fill="#FF8000"/>
<path d="M384.1 55.4C382.7 53.8 380.9 52.5 378.9 51.7C374.9 49.8 370.3 49.8 366.3 51.7C364.7 52.6 363.2 53.6 361.8 54.7V51.7C361.7 50.8 360.9 50.1 359.9 50.2H357.3C356.5 50.3 355.9 50.9 355.8 51.7V102.7C355.9 103.5 356.5 104.1 357.3 104.2H360.3C361.1 104.1 361.7 103.5 361.8 102.7V84.7999C363 86.0999 364.6 87 366.3 87.4C370.3 89.3 374.9 89.3 378.9 87.4C380.9 86.5 382.6 85.2 384.1 83.7C385.6 82.1 386.7 80.2 387.4 78.1C388.1 75.4 388.5 72.7 388.5 69.9C388.5 66.8 388.1 63.6 387.4 60.6C386.5 58.8 385.4 57 384.1 55.4ZM382.6 76.2C382.2 77.7 381.5 79.1999 380.4 80.2999C379.6 81.4999 378.4 82.4 377.1 82.9C374.3 84.4 371 84.4 368.2 82.9C366.9 82.2 365.8 81.3999 364.9 80.2999C363.8 79.1999 363 77.7 362.7 76.2C362.3 74.2 362 72.3 362 70.2C362.1 68 362.3 65.7 362.7 63.5C363 62 363.8 60.6 364.9 59.4C365.7 58.2 366.9 57.3 368.2 56.8C371 55.3 374.3 55.3 377.1 56.8C378.4 57.5 379.5 58.3 380.4 59.4C381.5 60.5 382.3 62 382.6 63.5C383 65.7 383.3 67.9 383.3 70.2C383.5 72.3 383.3 74.3 382.6 76.2Z" fill="#FF8000"/>
</g>
</mask>
<g mask="url(#mask0_7_19)">
<rect width="419" height="118" fill="#D9D9D9"/>
</g>
<defs>
<clipPath id="clip0_7_19">
<rect width="400" height="104.9" fill="white"/>
</clipPath>
</defs>
</svg>
