<svg width="405" height="78" viewBox="0 0 405 78" fill="none" xmlns="http://www.w3.org/2000/svg">
<mask id="mask0_7_25" style="mask-type:alpha" maskUnits="userSpaceOnUse" x="0" y="0" width="405" height="78">
<g clip-path="url(#clip0_7_25)">
<path d="M213.737 0H257.895V12.6833H225.665V30.6937H256.998V42.9458H225.665V61.2605H257.895V73.9438H213.737V0ZM379.845 75.2756C393.383 75.2756 401.011 67.6656 401.011 57.2145C401.011 49.7694 396.494 44.2141 387.041 41.8042L377.046 39.4071C371.244 38.1388 369.418 36.8704 369.418 34.3338C369.418 31.0488 372.217 29.0321 377.371 29.0321C382.956 29.0321 387.095 30.7951 388.175 36.8577H399.887C399.25 25.4428 392.259 17.9089 378.084 17.9089C365.831 17.9089 357.231 23.8447 357.231 35.3484C357.231 43.3009 361.963 48.4757 372.174 50.9997L383.345 54.031C387.754 55.0456 388.931 56.4408 388.931 58.5843C388.931 61.9961 385.604 64.1396 380.223 64.1396C373.459 64.1396 369.591 62.3766 368.089 56.314H356.313C358.031 67.7036 365.226 75.2756 379.845 75.2756ZM352.909 73.8931H340.236C332.283 73.8931 327.875 68.0841 327.875 60.7531V31.7083H318.961V19.3294H327.918V3.79232H339.695V19.3294H352.909V31.7083H339.695V57.2145C339.695 60.119 341.413 61.5141 344.104 61.5141H352.909V73.8931ZM302.128 19.3548V24.2759C297.982 20.1612 292.723 17.9132 287.294 17.9342C284.043 17.854 280.811 18.5362 277.788 19.941C274.765 21.3458 272.012 23.4448 269.689 26.1151C267.366 28.7853 265.52 31.9731 264.26 35.4915C263 39.0099 262.351 42.7882 262.351 46.6049C262.351 50.4216 263 54.1998 264.26 57.7183C265.52 61.2367 267.366 64.4244 269.689 67.0947C272.012 69.765 274.765 71.864 277.788 73.2688C280.811 74.6736 284.043 75.3558 287.294 75.2756C292.724 75.3032 297.985 73.0544 302.128 68.9339V73.8677H313.873V19.3294L302.128 19.3548ZM288.266 63.3025C285.449 63.3402 282.686 62.3939 280.328 60.5837C277.97 58.7736 276.123 56.1814 275.024 53.1365C273.924 50.0917 273.62 46.7317 274.15 43.4836C274.681 40.2355 276.022 37.2459 278.004 34.8948C279.985 32.5437 282.517 30.9372 285.279 30.2795C288.04 29.6218 290.905 29.9426 293.51 31.2012C296.116 32.4597 298.344 34.5991 299.911 37.3475C301.478 40.096 302.314 43.3293 302.312 46.6366C302.329 48.8168 301.978 50.9793 301.278 52.999C300.578 55.0188 299.545 56.8556 298.236 58.4031C296.928 59.9507 295.371 61.1783 293.656 62.015C291.941 62.8516 290.102 63.2806 288.244 63.2771L288.266 63.3025Z" fill="#05C167"/>
<path d="M187.525 29.5648C181.615 29.5648 177.423 34.9933 177.423 43.3263V73.8931H168.401V20.0904H177.315V26.6604C178.414 24.4828 179.99 22.6901 181.878 21.468C183.767 20.2459 185.899 19.6389 188.054 19.7099H191.296V29.5648H187.525ZM162.167 46.9917C162.167 30.9473 152.443 18.9489 139.283 18.9489C136.174 18.9737 133.099 19.7199 130.236 21.1447C127.374 22.5695 124.779 24.6447 122.602 27.251C120.425 29.8572 118.709 32.9431 117.551 36.331C116.394 39.7188 115.819 43.3419 115.859 46.9917C115.859 63.0235 126.393 75.1487 140.137 75.1487C143.976 75.2339 147.776 74.2344 151.217 72.2345C154.658 70.2347 157.639 67.2931 159.909 63.6576L153.361 58.0262C151.859 60.4873 149.871 62.4847 147.568 63.8475C145.265 65.2104 142.715 65.8981 140.137 65.8519C136.464 65.8315 132.918 64.2672 130.144 61.4425C127.369 58.6178 125.547 54.7196 125.01 50.4543H162.188L162.167 46.9917ZM125.205 42.0579C126.815 33.8518 132.401 28.2965 139.175 28.2965C145.949 28.2965 151.524 33.8518 153.037 42.0579H125.205ZM87.281 18.9489C84.266 18.9519 81.2814 19.6562 78.4997 21.0212C75.7179 22.3861 73.1942 24.3847 71.0743 26.9013V0H62.0525V73.8931H70.9662V67.0695C75.2845 72.1975 81.1603 75.1034 87.3026 75.1487C90.4889 75.2282 93.6566 74.5601 96.6201 73.1837C99.5836 71.8072 102.283 69.7501 104.56 67.1329C106.838 64.5157 108.647 61.3911 109.882 57.9424C111.118 54.4936 111.754 50.79 111.754 47.0488C111.754 43.3076 111.118 39.604 109.882 36.1553C108.647 32.7065 106.838 29.5819 104.56 26.9647C102.283 24.3475 99.5836 22.2904 96.6201 20.914C93.6566 19.5375 90.4889 18.8694 87.3026 18.9489H87.281ZM86.6327 65.687C83.4881 65.7045 80.4099 64.6252 77.7887 62.5858C75.1675 60.5464 73.1215 57.6389 71.9102 54.2323C70.6988 50.8256 70.3769 47.0734 70.9851 43.4516C71.5934 39.8298 73.1044 36.5018 75.3265 33.8897C77.5486 31.2776 80.3815 29.4993 83.466 28.7803C86.5504 28.0614 89.7473 28.4342 92.6509 29.8515C95.5546 31.2688 98.0341 33.6667 99.775 36.7409C101.516 39.8151 102.44 43.4271 102.429 47.1186C102.432 49.5534 102.025 51.965 101.232 54.2148C100.439 56.4646 99.275 58.5085 97.8074 60.229C96.3397 61.9495 94.597 63.3129 92.6794 64.2408C90.7618 65.1687 88.7069 65.6429 86.6327 65.6362V65.687ZM28.8287 65.1796C37.5372 65.1796 44.3008 57.3413 44.3008 45.5966V0H53.6466V73.8931H44.4088V66.9046C42.2505 69.523 39.6622 71.6003 36.8004 73.0108C33.9386 74.4213 30.8628 75.1357 27.7591 75.1107C14.3291 75.1107 3.98923 63.6196 3.98923 46.1927V0H13.508V45.66C13.508 57.4682 19.9907 65.1796 28.8287 65.1796Z" fill="black"/>
</g>
</mask>
<g mask="url(#mask0_7_25)">
<rect y="-5.86597" width="431.815" height="89.1627" fill="#D9D9D9"/>
</g>
<defs>
<clipPath id="clip0_7_25">
<rect width="405" height="77.5898" fill="white"/>
</clipPath>
</defs>
</svg>
